name C:\Users\u0101727\Documents\MyRepositories\upper-imu-dc\Results\main_tracking\Case_49\kinematics.mot
datacolumns 10
datarows 52
range 5.20000000 5.71000000
endheader 
time	clav_prot	clav_elev	scapula_abduction	scapula_elevation	scapula_upward_rot	scapula_winging	plane_elv	shoulder_elv	axial_rot	
          5.20000000	        -46.69151593	          8.53010091	        -30.50090026	         -2.88695594	         47.97249024	        -14.20627820	         26.56092159	         71.75406919	        -18.44654177	
          5.21000000	        -46.64240821	          8.47937124	        -30.77410198	         -2.87772098	         47.49615761	        -14.10011450	         26.50813943	         71.05956934	        -18.69668916	
          5.22000000	        -46.59194922	          8.42678414	        -31.03434795	         -2.86950448	         47.03310205	        -13.99244114	         26.44527686	         70.35337563	        -18.94926088	
          5.23000000	        -46.53986676	          8.37260690	        -31.28174709	         -2.86216609	         46.58282025	        -13.88324526	         26.37124574	         69.63731184	        -19.20673182	
          5.24000000	        -46.48584828	          8.31711378	        -31.51637395	         -2.85554700	         46.14478576	        -13.77247467	         26.28500257	         68.91311402	        -19.47125632	
          5.25000000	        -46.42955968	          8.26058200	        -31.73830506	         -2.84947251	         45.71843299	        -13.66004787	         26.18562197	         68.18238641	        -19.74451465	
          5.26000000	        -46.37066150	          8.20328447	        -31.94764851	         -2.84375669	         45.30314366	        -13.54586138	         26.07236030	         67.44656957	        -20.02762108	
          5.27000000	        -46.30882422	          8.14548020	        -32.14456731	         -2.83820890	         44.89823824	        -13.42979605	         25.94470728	         66.70692343	        -20.32112627	
          5.28000000	        -46.24374415	          8.08740412	        -32.32929917	         -2.83264128	         44.50297288	        -13.31172426	         25.80242574	         65.96452738	        -20.62513470	
          5.29000000	        -46.17515976	          8.02925771	        -32.50217466	         -2.82687612	         44.11653975	        -13.19151793	         25.64557901	         65.22029860	        -20.93953248	
          5.30000000	        -46.10286641	          7.97120099	        -32.66363293	         -2.82075240	         43.73806834	        -13.06905596	         25.47454396	         64.47502783	        -21.26428865	
          5.31000000	        -46.02672600	          7.91334572	        -32.81423079	         -2.81413114	         43.36662691	        -12.94422838	         25.29000681	         63.72942825	        -21.59976458	
          5.32000000	        -45.94666751	          7.85574889	        -32.95463808	         -2.80690016	         43.00122557	        -12.81693472	         25.09293834	         62.98419034	        -21.94695197	
          5.33000000	        -45.86267625	          7.79840508	        -33.08561339	         -2.79897917	         42.64082415	        -12.68707515	         24.88454647	         62.24003435	        -22.30756752	
          5.34000000	        -45.77477238	          7.74123634	        -33.20795827	         -2.79032682	         42.28434735	        -12.55453499	         24.66620678	         61.49775377	        -22.68396269	
          5.35000000	        -45.68298223	          7.68407870	        -33.32245493	         -2.78095025	         41.93070724	        -12.41916521	         24.43937529	         60.75824460	        -23.07884770	
          5.36000000	        -45.58730784	          7.62666654	        -33.42979659	         -2.77091694	         41.57883067	        -12.28076247	         24.20549208	         60.02251741	        -23.49486461	
          5.37000000	        -45.48769966	          7.56861745	        -33.53052155	         -2.76036683	         41.22768806	        -12.13905254	         23.96588681	         59.29168963	        -23.93406762	
          5.38000000	        -45.38403639	          7.50942195	        -33.62496051	         -2.74952180	         40.87631999	        -11.99368037	         23.72169705	         58.56695747	        -24.39737925	
          5.39000000	        -45.27611459	          7.44844177	        -33.71320397	         -2.73868984	         40.52385974	        -11.84420924	         23.47380700	         57.84954832	        -24.88409444	
          5.40000000	        -45.16364970	          7.38491931	        -33.79509320	         -2.72826225	         40.16955122	        -11.69013036	         23.22280905	         57.14065763	        -25.39149999	
          5.41000000	        -45.04628861	          7.31799785	        -33.87023476	         -2.71870408	         39.81276293	        -11.53088288	         22.96898692	         56.44137662	        -25.91466833	
          5.42000000	        -44.92363330	          7.24675115	        -33.93803711	         -2.71053877	         39.45299829	        -11.36588304	         22.71231778	         55.75261925	        -26.44646869	
          5.43000000	        -44.79527385	          7.17022020	        -33.99776618	         -2.70432837	         39.08990240	        -11.19456054	         22.45249290	         55.07505614	        -26.97781440	
          5.44000000	        -44.66082806	          7.08745522	        -34.04861600	         -2.70065021	         38.72326468	        -11.01639915	         22.18895871	         54.40906150	        -27.49812754	
          5.45000000	        -44.51998405	          6.99756090	        -34.08978867	         -2.70007090	         38.35301708	        -10.83097841	         21.92097950	         53.75467616	        -27.99595760	
          5.46000000	        -44.37254205	          6.89974255	        -34.12057763	         -2.70311912	         37.97922794	        -10.63801284	         21.64771913	         53.11158749	        -28.45966040	
          5.47000000	        -44.21845201	          6.79335014	        -34.14044725	         -2.71025865	         37.60209281	        -10.43738600	         21.36833366	         52.47912482	        -28.87804448	
          5.48000000	        -44.05784421	          6.67791756	        -34.14910256	         -2.72186372	         37.22192345	        -10.22917676	         21.08206435	         51.85626856	        -29.24091595	
          5.49000000	        -43.89105070	          6.55319408	        -34.14654497	         -2.73819818	         36.83913527	        -10.01367607	         20.78832309	         51.24167070	        -29.53948478	
          5.50000000	        -43.71861709	          6.41916602	        -34.13311230	         -2.75939987	         36.45423246	         -9.79139318	         20.48676563	         50.63368493	        -29.76662391	
          5.51000000	        -43.54130439	          6.27606693	        -34.10950310	         -2.78547107	         36.06778935	         -9.56305096	         20.17734980	         50.03040487	        -29.91699424	
          5.52000000	        -43.36008104	          6.12437546	        -34.07678505	         -2.81627534	         35.68042765	         -9.32957039	         19.86037611	         49.42970869	        -29.98706031	
          5.53000000	        -43.17610557	          5.96480110	        -34.03638642	         -2.85154121	         35.29279117	         -9.09204519	         19.53650663	         48.82930840	        -29.97502552	
          5.54000000	        -42.99070058	          5.79825950	        -33.99007019	         -2.89087184	         34.90552074	         -8.85170894	         19.20675921	         48.22680192	        -29.88071263	
          5.55000000	        -42.80532074	          5.62584041	        -33.93989318	         -2.93375959	         34.51923220	         -8.60989771	         18.87247703	         47.61972655	        -29.70541058	
          5.56000000	        -42.62151763	          5.44877227	        -33.88815554	         -2.97960294	         34.13449843	         -8.36801225	         18.53527924	         47.00561283	        -29.45170221	
          5.57000000	        -42.44090459	          5.26838734	        -33.83734642	         -3.02772378	         33.75183461	         -8.12748230	         18.19700234	         46.38203791	        -29.12328177	
          5.58000000	        -42.26512242	          5.08608946	        -33.79008998	         -3.07738311	         33.37168521	         -7.88973431	         17.85964157	         45.74667791	        -28.72476616	
          5.59000000	        -42.09580577	          4.90332512	        -33.74909132	         -3.12779494	         32.99441203	         -7.65616219	         17.52529564	         45.09735914	        -28.26150190	
          5.60000000	        -41.93454803	          4.72155624	        -33.71707874	         -3.17813941	         32.62028443	         -7.42809980	         17.19611072	         44.43210916	        -27.73937313	
          5.61000000	        -41.78286292	          4.54223287	        -33.69673703	         -3.22757664	         32.24947403	         -7.20679386	         16.87421474	         43.74920917	        -27.16462656	
          5.62000000	        -41.64214174	          4.36676485	        -33.69062815	         -3.27526264	         31.88205682	         -6.99337693	         16.56163263	         43.04724872	        -26.54374048	
          5.63000000	        -41.51360697	          4.19649414	        -33.70109992	         -3.32036648	         31.51802481	         -6.78884178	         16.26017804	         42.32518241	        -25.88336498	
          5.64000000	        -41.39826430	          4.03267034	        -33.73018675	         -3.36208723	         31.15730745	         -6.59401868	         15.97132643	         41.58238669	        -25.19034200	
          5.65000000	        -41.29685569	          3.87643132	        -33.77950919	         -3.39966923	         30.79980032	         -6.40955682	         15.69608247	         40.81871241	        -24.47178234	
          5.66000000	        -41.20981624	          3.72878878	        -33.85017924	         -3.43241543	         30.44539786	         -6.23590990	         15.43485825	         40.03452776	        -23.73514839	
          5.67000000	        -41.13723772	          3.59061702	        -33.94271784	         -3.45969933	         30.09402621	         -6.07332556	         15.18737612	         39.23074591	        -22.98828108	
          5.68000000	        -41.07884118	          3.46264270	        -34.05699005	         -3.48097693	         29.74567329	         -5.92183797	         14.95260320	         38.40883313	        -22.23932886	
          5.69000000	        -41.03396171	          3.34543391	        -34.19216337	         -3.49579935	         29.40041355	         -5.78126358	         14.72871785	         37.57079427	        -21.49656935	
          5.70000000	        -41.00154806	          3.23938840	        -34.34669468	         -3.50382600	         29.05842543	         -5.65120093	         14.51310591	         36.71913500	        -20.76813869	
          5.71000000	        -40.98017927	          3.14472292	        -34.51835002	         -3.50483691	         28.72000036	         -5.53103585	         14.30238542	         35.85680220	        -20.06169690	
